<svg version="1.1" id="Layer_1" xmlns="http://www.w3.org/2000/svg" xmlns:xlink="http://www.w3.org/1999/xlink" x="0px" y="0px"
	 width="100%" viewBox="0 0 1082 598" enable-background="new 0 0 1082 598" xml:space="preserve">
<path fill="currentColor" opacity="1.000000" stroke="none" 
	d="
M435.269531,401.649231 
	C402.145172,389.722839 368.486511,382.593201 333.287659,382.227722 
	C333.287659,286.135620 333.287659,190.385605 333.287659,94.093330 
	C338.822815,94.459213 344.495361,94.248672 349.924835,95.296944 
	C370.695709,99.307159 391.679291,102.671051 412.023041,108.301323 
	C429.980347,113.271133 447.465759,120.289238 464.666687,127.567650 
	C489.677673,138.150818 512.044861,153.246338 532.770081,170.749649 
	C536.313354,173.742065 539.847107,176.817841 542.904907,180.279480 
	C544.231689,181.781525 544.912476,184.356964 544.919006,186.447845 
	C545.035645,223.945724 545.142456,261.445068 544.868042,298.941284 
	C544.822021,305.232880 545.970337,310.140900 551.287292,313.880707 
	C558.272217,318.793701 558.863281,331.291290 553.753174,338.496765 
	C549.765991,344.118866 540.484802,347.929321 533.382263,345.728271 
	C526.541931,343.608551 521.514343,339.276093 519.932434,331.606140 
	C518.093018,322.687775 520.939331,316.071228 528.282715,310.885681 
	C529.705322,309.881134 530.880005,307.451630 530.886963,305.674377 
	C531.035889,267.843445 531.030701,230.011642 530.907471,192.180496 
	C530.901855,190.460159 529.958801,188.246658 528.693237,187.102951 
	C515.197449,174.906784 500.731842,164.103836 485.033905,154.744003 
	C455.383942,137.065323 423.486359,125.347565 390.120636,117.398293 
	C377.018127,114.276657 363.619476,112.395668 350.348663,109.988396 
	C349.405304,109.817276 348.403931,109.965996 346.975739,109.965996 
	C346.975739,111.814880 346.975739,113.443855 346.975739,115.072838 
	C346.975555,196.902313 347.019745,278.731903 346.870331,360.561096 
	C346.860901,365.727509 347.568359,368.057556 353.583344,368.470734 
	C390.556763,371.010345 425.627014,381.488037 459.858978,395.104950 
	C463.573944,396.582703 466.453491,396.330902 469.982178,394.206085 
	C478.129669,389.300049 488.246552,391.544769 494.119995,398.563477 
	C499.691223,405.220978 499.764893,416.412689 493.428772,423.982422 
	C484.866760,434.211517 465.434387,429.324646 461.256531,415.893555 
	C460.129974,412.271881 458.446045,410.261200 455.067291,409.056000 
	C448.555206,406.733215 442.109680,404.223816 435.269531,401.649231 
z"/>
<path fill="currentColor" opacity="1.000000" stroke="none" 
	d="
M582.972900,141.122925 
	C588.584961,138.498734 593.771057,135.858017 598.974731,133.252304 
	C630.403870,117.514229 663.386658,106.316307 697.965942,100.064125 
	C711.245483,97.663071 724.695374,96.196823 738.077576,94.378387 
	C739.822754,94.141243 741.628052,94.345871 743.326233,94.345871 
	C743.326233,190.274307 743.326233,285.906342 743.326233,381.355896 
	C729.175598,382.888245 715.555054,383.541656 702.271545,386.009277 
	C685.616577,389.103210 669.098999,393.192474 652.788025,397.794373 
	C641.484009,400.983673 630.562683,405.598877 619.633179,409.982910 
	C617.606445,410.795898 615.639465,413.286621 614.868103,415.440918 
	C611.124695,425.895996 600.717651,431.785767 590.349060,428.531616 
	C579.514404,425.131256 574.408569,414.308167 578.496765,403.542969 
	C582.415100,393.225189 595.145447,387.838928 606.086853,394.758118 
	C609.655151,397.014618 612.330322,396.856781 615.983948,395.299744 
	C640.830872,384.710938 666.661743,377.201599 693.145813,372.130585 
	C704.848938,369.889801 716.803528,368.962189 729.317932,367.351685 
	C729.317932,281.695923 729.317932,195.934784 729.317932,109.458000 
	C718.859192,111.262344 708.250793,112.857224 697.742004,114.951881 
	C671.553894,120.171860 646.148804,128.008514 621.770386,138.939346 
	C612.701965,143.005478 603.994385,147.869705 595.025146,152.167435 
	C592.491638,153.381393 591.945862,154.984421 591.874390,157.612946 
	C591.640686,166.206024 586.152344,173.550507 578.687195,175.812286 
	C570.356445,178.336334 562.125305,175.435028 556.779846,168.090485 
	C552.618347,162.372726 552.947327,152.739838 557.526123,146.237335 
	C561.652710,140.377060 570.776855,137.379196 577.918518,139.560867 
	C579.477539,140.037109 581.010193,140.599716 582.972900,141.122925 
z"/>
<path fill="currentColor" opacity="1.000000" stroke="none" 
	d="
M480.198364,582.012146 
	C464.345306,582.012512 448.964355,582.012512 433.304657,582.012512 
	C433.304657,566.968384 433.304657,551.372314 433.304657,535.015625 
	C434.714111,535.015625 436.291260,535.015625 437.868439,535.015625 
	C451.862488,535.015381 465.858459,534.886353 479.849304,535.098389 
	C483.726990,535.157104 485.323212,534.063843 485.121002,530.077026 
	C484.887054,525.463501 485.066620,520.828979 485.066620,515.473022 
	C467.709106,515.473022 450.697693,515.473022 433.362915,515.473022 
	C433.362915,510.354584 433.362915,505.968903 433.362915,501.038269 
	C441.982910,501.038269 450.589752,501.037903 459.196564,501.038361 
	C467.692932,501.038788 476.189575,501.001007 484.685638,501.051666 
	C493.548584,501.104492 498.434265,505.437683 498.934692,514.355286 
	C499.321625,521.250671 500.318817,528.536621 498.610840,535.006470 
	C496.864960,541.619995 499.126801,547.057678 499.715729,553.064453 
	C500.302856,559.053406 499.383514,565.200195 499.009949,571.270752 
	C498.503601,579.499756 492.757690,582.047668 486.667999,582.010803 
	C484.668884,581.998718 482.669647,582.010803 480.198364,582.012146 
M452.721558,549.538574 
	C451.139801,549.614929 449.558044,549.691223 447.891235,549.771606 
	C447.891235,555.871704 447.891235,561.481812 447.891235,567.453491 
	C460.267670,567.453491 472.460327,567.453491 484.796509,567.453491 
	C484.796509,561.446350 484.796509,555.732849 484.796509,549.540405 
	C474.217346,549.540405 463.949097,549.540405 452.721558,549.538574 
z"/>
<path fill="currentColor" opacity="1.000000" stroke="none" 
	d="
M881.828186,560.294922 
	C874.916138,549.277588 868.197021,538.572327 861.477966,527.867004 
	C861.125427,527.905884 860.772949,527.944702 860.420410,527.983582 
	C860.420410,546.113342 860.420410,564.243042 860.420410,582.635559 
	C855.336182,582.635559 851.065613,582.635559 846.393677,582.635559 
	C846.393677,555.730896 846.393677,528.683777 846.393677,501.054291 
	C851.024353,501.054291 855.859375,500.593750 860.527283,501.276031 
	C862.453735,501.557617 864.469910,504.012970 865.682251,505.955841 
	C876.042725,522.557983 886.227966,539.269470 897.401123,555.891113 
	C897.401123,537.831787 897.401123,519.772461 897.401123,501.379578 
	C902.570007,501.379578 906.965759,501.379578 911.762390,501.379578 
	C912.130005,508.753601 912.747314,516.249634 912.828552,523.751465 
	C913.014343,540.898560 912.952637,558.048523 912.960754,575.197327 
	C912.963867,581.821411 911.474548,582.684937 904.836487,582.710022 
	C897.558594,582.737549 892.493530,580.671143 889.662537,573.345764 
	C887.903748,568.794861 884.620239,564.833191 881.828186,560.294922 
z"/>
<path fill="currentColor" opacity="1.000000" stroke="none" 
	d="
M352.998016,562.999695 
	C352.998016,569.475525 352.998016,575.451599 352.998016,581.717773 
	C348.372467,581.717773 343.983154,581.717773 339.110077,581.717773 
	C339.110077,580.335510 339.110046,579.053528 339.110077,577.771606 
	C339.110474,553.941040 339.206909,530.109680 339.021393,506.280548 
	C338.988586,502.064728 340.384705,501.324890 344.393066,500.847565 
	C353.134186,499.806702 358.202667,502.671326 362.499512,510.731140 
	C369.904144,524.620422 378.893127,537.665405 387.227997,551.057983 
	C388.093201,552.448181 389.030975,553.793213 391.215912,555.028137 
	C391.215912,536.862793 391.215912,518.697449 391.215912,500.838745 
	C396.634369,500.838745 400.994537,500.838745 405.661530,500.838745 
	C405.661530,528.360352 405.661530,555.407104 405.661530,582.898865 
	C400.898529,582.898865 396.270050,583.020813 391.658081,582.799011 
	C390.702026,582.753052 389.529999,581.609192 388.925690,580.670105 
	C378.549347,564.544739 368.252869,548.368042 357.917175,532.216492 
	C356.973145,530.741211 355.881165,529.360535 353.969788,526.699402 
	C353.619537,539.602051 353.308777,551.050964 352.998016,562.999695 
z"/>
<path fill="currentColor" opacity="1.000000" stroke="none" 
	d="
M619.105591,520.212280 
	C619.840454,513.138489 619.379761,505.918915 627.033691,502.620178 
	C629.085693,501.735809 631.434753,501.141052 633.655762,501.114746 
	C645.972656,500.968933 658.292358,500.979034 670.610413,501.054688 
	C680.930847,501.118042 685.962769,506.245239 685.981934,516.594971 
	C686.012512,533.075073 686.228943,549.560608 685.864746,566.032776 
	C685.731628,572.051697 685.533691,578.857239 678.028687,581.273560 
	C675.240601,582.171265 672.202515,582.714600 669.281311,582.703247 
	C656.811707,582.654602 644.343506,582.305847 631.873962,582.131775 
	C624.667053,582.031128 620.347534,577.973267 620.056213,569.251526 
	C619.515747,553.071228 619.401733,536.876770 619.105591,520.212280 
M667.489258,515.702148 
	C656.593140,515.702148 645.697021,515.702148 634.823853,515.702148 
	C634.823853,533.596985 634.823853,550.769714 634.823853,567.754639 
	C647.184631,567.754639 659.074890,567.754639 671.329346,567.754639 
	C671.329346,550.889832 671.367676,534.438171 671.208984,517.988342 
	C671.201538,517.217957 669.437866,516.464417 667.489258,515.702148 
z"/>
<path fill="currentColor" opacity="1.000000" stroke="none" 
	d="
M533.885376,502.659119 
	C536.428406,501.949341 538.656189,501.127960 540.892517,501.104004 
	C553.041016,500.973907 565.191895,501.087006 577.341492,501.024628 
	C586.679932,500.976654 593.071472,505.992188 592.989868,516.790894 
	C592.862732,533.600037 592.843750,550.412048 593.007324,567.220581 
	C593.092896,576.008301 587.754211,583.339722 577.300720,582.966797 
	C564.088989,582.495483 550.864868,582.378418 537.650146,581.976074 
	C531.143799,581.777954 526.007874,576.047852 526.071899,568.624878 
	C526.233826,549.848083 526.559082,531.070740 527.081421,512.300842 
	C527.197998,508.108948 528.954956,504.342194 533.885376,502.659119 
M578.239197,527.507935 
	C578.239197,523.727600 578.239197,519.947266 578.239197,516.003418 
	C565.580627,516.003418 553.400269,516.003418 541.196655,516.003418 
	C541.196655,533.495239 541.196655,550.696716 541.196655,567.773315 
	C553.693848,567.773315 565.889709,567.773315 578.239197,567.773315 
	C578.239197,554.435852 578.239197,541.470215 578.239197,527.507935 
z"/>
<path fill="currentColor" opacity="1.000000" stroke="none" 
	d="
M113.988800,501.042419 
	C119.093452,501.318207 123.717438,501.432678 128.303696,501.909882 
	C134.415314,502.545868 137.893494,507.451324 137.939758,513.817322 
	C138.077621,532.795471 138.041245,551.775696 137.945145,570.754395 
	C137.918060,576.104309 133.629257,581.671143 128.530014,581.821228 
	C114.462753,582.235168 100.376511,582.049133 86.298172,581.995789 
	C84.063904,581.987366 81.679276,581.839539 79.627106,581.062073 
	C73.528473,578.751709 72.060966,573.466858 72.033562,567.672852 
	C71.951653,550.358948 72.377625,533.033264 71.852409,515.734985 
	C71.592102,507.161957 77.064392,501.298523 86.521820,501.086426 
	C95.507462,500.884827 104.501167,501.042755 113.988800,501.042419 
M100.509659,515.722595 
	C97.182709,515.725403 93.845055,515.895935 90.531776,515.684509 
	C87.118759,515.466736 85.861069,516.634155 85.903961,520.201721 
	C86.081924,535.004578 85.985672,549.810669 86.027756,564.615479 
	C86.030869,565.710266 86.332199,566.804321 86.482948,567.818359 
	C99.058334,567.818359 111.296494,567.818359 123.729477,567.818359 
	C123.729477,550.330627 123.729477,533.138916 123.729477,515.723328 
	C116.116425,515.723328 108.811218,515.723328 100.509659,515.722595 
z"/>
<path fill="currentColor" opacity="1.000000" stroke="none" 
	d="
M969.992310,545.814331 
	C969.991821,542.041626 969.991821,538.748474 969.991821,535.242798 
	C981.994873,535.242798 993.605164,535.242798 1005.658630,535.242798 
	C1005.758484,536.333191 1005.969360,537.585266 1005.972595,538.837891 
	C1005.997864,548.666992 1006.020996,558.496521 1005.970093,568.325500 
	C1005.922668,577.476379 1001.493286,581.850098 992.485291,582.027649 
	C981.567322,582.242798 970.651855,582.803955 959.735840,582.791992 
	C955.521606,582.787415 951.170959,582.079712 947.130249,580.866882 
	C942.169800,579.377869 940.015747,575.294678 940.006409,570.208740 
	C939.971558,551.216675 939.938538,532.224243 940.022583,513.232483 
	C940.049805,507.077271 945.307373,501.279510 951.495667,501.181061 
	C967.123169,500.932404 982.757141,501.098602 998.683716,501.098602 
	C998.683716,505.739105 998.683716,510.124451 998.683716,514.956543 
	C983.827026,514.956543 969.090515,514.956543 954.371582,514.956543 
	C954.371582,532.773743 954.371582,550.144226 954.371582,567.838379 
	C966.852051,567.838379 978.897095,567.838379 991.471497,567.838379 
	C991.471497,561.586060 991.471497,555.515076 991.471497,548.939270 
	C985.699585,548.939270 979.564880,549.077271 973.446777,548.819763 
	C972.262146,548.769897 971.142456,547.175720 969.992310,545.814331 
z"/>
<path fill="currentColor" opacity="1.000000" stroke="none" 
	d="
M759.923462,575.138794 
	C755.517334,567.514771 751.161438,560.288635 747.189941,552.857117 
	C745.782837,550.224121 744.068848,549.487305 741.330750,549.589172 
	C737.002747,549.750305 732.664307,549.632141 727.000977,549.632141 
	C727.000977,558.929871 727.010925,567.814880 726.997437,576.699829 
	C726.988220,582.791626 726.746277,582.956787 720.809753,582.061279 
	C719.506409,581.864624 718.150208,582.016357 716.818359,582.012024 
	C715.705200,582.008423 714.592041,582.011292 713.286499,582.011292 
	C713.286499,554.937134 713.286499,528.348145 713.286499,501.396515 
	C717.630127,501.396515 722.014160,501.396515 727.322876,501.396515 
	C727.322876,512.099670 727.322876,522.886719 727.322876,534.237305 
	C733.329346,534.237305 738.442566,534.375610 743.537109,534.128967 
	C744.651001,534.075012 746.093079,532.878967 746.714478,531.817078 
	C752.055420,522.689636 757.329834,513.520020 762.414429,504.247986 
	C763.685791,501.929565 764.995789,500.795563 767.758667,500.973633 
	C771.725342,501.229340 775.720703,501.038910 780.953125,501.038910 
	C777.381409,507.635223 774.250000,513.532898 771.010803,519.370789 
	C767.229065,526.186401 763.112915,532.832275 759.695190,539.822388 
	C758.888733,541.471741 759.749756,544.500244 760.775269,546.388306 
	C766.630737,557.168030 772.776123,567.790222 778.794922,578.481689 
	C779.327332,579.427612 779.658630,580.486755 780.299927,582.006714 
	C775.114624,582.006714 770.330505,582.720642 765.940674,581.714355 
	C763.644531,581.188049 762.041321,577.639404 759.923462,575.138794 
z"/>
<path fill="currentColor" opacity="1.000000" stroke="none" 
	d="
M217.565796,501.039795 
	C227.727386,502.770020 231.055054,507.314697 230.974503,517.862549 
	C230.918549,525.187500 230.973724,532.513306 230.959656,539.838684 
	C230.941040,549.544312 225.595428,554.877808 215.754517,554.912170 
	C203.655411,554.954407 191.556046,554.922241 178.944763,554.922241 
	C178.944763,564.663879 178.944763,573.564148 178.944763,582.681824 
	C173.847046,582.681824 169.258591,582.681824 164.339783,582.681824 
	C164.339783,568.900024 164.339783,555.187988 164.339783,540.646912 
	C181.479797,540.646912 198.589203,540.646912 215.996719,540.646912 
	C215.996719,531.950012 215.996719,524.076599 215.996719,515.389404 
	C198.712936,515.389404 181.599106,515.389404 164.254105,515.389404 
	C164.254105,510.142822 164.254105,505.701508 164.254105,501.026917 
	C181.883286,501.026917 199.498032,501.026917 217.565796,501.039795 
z"/>
<path fill="currentColor" opacity="1.000000" stroke="none" 
	d="
M270.426270,564.097656 
	C269.965271,567.490295 271.275299,568.240234 274.071899,568.214050 
	C284.373322,568.117249 294.678223,568.185913 304.979126,568.356140 
	C308.514099,568.414551 312.041138,568.953491 315.106995,569.230835 
	C315.106995,573.689331 315.106995,578.042480 315.106995,582.050476 
	C301.730164,582.050476 288.883484,582.053772 276.036804,582.047852 
	C273.207672,582.046509 270.377838,582.044983 267.549500,581.986694 
	C260.554596,581.842712 256.033234,577.326904 256.013367,570.263428 
	C255.961365,551.788940 256.251495,533.308777 255.874893,514.841797 
	C255.701675,506.348907 262.086304,501.168335 269.262878,501.097351 
	C284.235504,500.949280 299.210571,501.052612 314.902466,501.052612 
	C314.902466,505.662842 314.902466,510.159546 314.902466,515.015137 
	C300.537750,515.015137 285.450409,515.015137 270.407166,515.015137 
	C270.407166,531.455688 270.407166,547.532959 270.426270,564.097656 
z"/>
<path fill="currentColor" opacity="1.000000" stroke="none" 
	d="
M817.961426,525.000000 
	C817.961487,544.454590 817.961487,563.409180 817.961487,582.632202 
	C813.333679,582.632202 809.064819,582.632202 804.399414,582.632202 
	C804.399414,555.399780 804.399414,528.021851 804.399414,500.783569 
	C808.584351,500.783569 812.929077,500.783569 817.961365,500.783569 
	C817.961365,508.987366 817.961365,516.743713 817.961426,525.000000 
z"/>
<path fill="currentColor" opacity="1.000000" stroke="none" 
	d="
M289.992065,548.938232 
	C284.528809,548.938293 279.563080,548.938293 274.313843,548.938293 
	C274.313843,544.235901 274.313843,539.853027 274.313843,535.240601 
	C283.725372,535.240601 292.995270,535.240601 302.633240,535.240601 
	C302.633240,539.524780 302.633240,543.914246 302.633240,548.938232 
	C298.680115,548.938232 294.584869,548.938232 289.992065,548.938232 
z"/>
</svg>